<svg width="1440" height="835" viewBox="0 0 1440 835" fill="none" xmlns="http://www.w3.org/2000/svg">
<g clip-path="url(#clip0)">
<rect width="1440" height="835" fill="white"/>
<rect width="1440" height="835" fill="#4257A3"/>
<path d="M847.351 567.803C1008.06 408.26 1309.41 389.773 1440 400.472V631.473V855.633L0.207626 863C-42.208 847.389 -101.59 793.121 0.207626 700.931C102.005 608.741 243.012 616.213 300.791 631.473C416.014 676.726 686.639 727.346 847.351 567.803Z" fill="#5973CE" fill-opacity="0.48"/>
<path d="M806.25 683.051C994.425 524.704 1345.94 507.922 1498.18 519.325L1497.08 749.883L1496.02 973.614L-183.067 972.987C-232.457 957.172 -301.45 902.678 -182.299 811.229C-63.1477 719.78 101.256 728.019 168.563 743.569C302.719 789.374 618.075 841.398 806.25 683.051Z" fill="#5973CE" fill-opacity="0.61"/>
<ellipse cx="216.5" cy="-93" rx="350.5" ry="242" fill="#FAF9F9" fill-opacity="0.12"/>
</g>
<defs>
<clipPath id="clip0">
<rect width="1440" height="835" fill="white"/>
</clipPath>
</defs>
</svg>
